<?xml version="1.0" encoding="UTF-8"?>
<svg version="1.1" xmlns="http://www.w3.org/2000/svg" width="1024" height="1024">
<path d="M0 0 C0.66 0 1.32 0 2 0 C4.51352215 10.11956225 6.30884983 20.27117733 7.9375 30.5625 C8.06695007 31.37390442 8.19640015 32.18530884 8.32977295 33.02130127 C9.11425845 37.93945427 9.88857058 42.85911444 10.65435791 47.7802124 C10.96761986 49.79204778 11.28323494 51.8035164 11.59912109 53.81494141 C24.88026726 139.15927304 24.59064229 226.26679434 -10 399 C-10.32871094 400.03527832 -10.65742187 401.07055664 -10.99609375 402.13720703 C-15.98264631 417.73388311 -21.50514994 432.96897915 -28 448 C-28.51699463 449.21333008 -28.51699463 449.21333008 -29.04443359 450.45117188 C-38.51076966 472.58866333 -49.60382015 493.98606388 -63 514 C-63.51385254 514.77746582 -64.02770508 515.55493164 -64.55712891 516.35595703 C-75.7580375 533.2761853 -88.07803102 549.14161497 -101.53125 564.32568359 C-103.06248763 566.07123341 -104.56284082 567.8405655 -106.0625 569.61328125 C-108.57733172 572.55535254 -111.22937037 575.29461283 -114 578 C-114.94571186 578.95404559 -115.88964698 579.90985485 -116.83203125 580.8671875 C-121.81564372 585.90384358 -126.80857979 590.82874939 -132.20703125 595.42578125 C-134.05429629 597.0476719 -135.77756714 598.74660205 -137.5 600.5 C-140.42130788 603.46715801 -143.47991673 606.20058971 -146.6328125 608.91796875 C-150.22047815 612.07345686 -153.70865022 615.33488456 -157.20800781 618.58764648 C-160.21282907 621.37389547 -163.24933793 624.09866019 -166.375 626.75 C-169.54915726 629.5026924 -172.26983169 632.46299051 -174.9765625 635.671875 C-176.95288112 637.945786 -179.01979223 640.11194751 -181.10766602 642.28295898 C-192.12279684 653.84042771 -201.4243204 666.95055784 -209 681 C-212 680 -212 680 -213.32421875 677.53515625 C-220.19212152 660.04069905 -225.54009751 642.12101605 -229.5 623.75 C-229.75523437 622.56639893 -230.01046875 621.38279785 -230.2734375 620.16333008 C-231.3406114 614.99645478 -232.12938278 610.29489227 -232 605 C-232.66 604.67 -233.32 604.34 -234 604 C-241.87714121 570.41209468 -238.39837879 526.62458369 -232 493 C-231.79101074 491.86143555 -231.58202148 490.72287109 -231.36669922 489.54980469 C-222.38662074 441.83094573 -201.35464725 394.6999744 -172 356 C-171.18494966 354.8833675 -170.37263393 353.76473579 -169.5625 352.64453125 C-159.9619624 339.38275663 -149.97236369 326.42735873 -139.41796875 313.91015625 C-136.28255626 310.13651763 -133.25949654 306.28158156 -130.2409668 302.41430664 C-127.39333637 298.76756832 -124.51877246 295.14496837 -121.6171875 291.54101562 C-116.31955175 284.9605754 -111.13283832 278.30563704 -106.02294922 271.57836914 C-103.07811833 267.70459326 -100.10921365 263.85263043 -97.1015625 260.02734375 C-96.45880371 259.20854736 -95.81604492 258.38975098 -95.15380859 257.54614258 C-93.90756279 255.9612465 -92.65801081 254.37894323 -91.40478516 252.79956055 C-90.8432373 252.08453369 -90.28168945 251.36950684 -89.703125 250.6328125 C-89.20458008 250.00262207 -88.70603516 249.37243164 -88.19238281 248.72314453 C-86.81053688 246.89792361 -86.81053688 246.89792361 -86 244 C-85.34 244 -84.68 244 -84 244 C-83.64421875 242.95972656 -83.64421875 242.95972656 -83.28125 241.8984375 C-81.76458976 238.46745611 -79.72132065 235.6191569 -77.5 232.625 C-76.58948471 231.36969278 -75.6806806 230.11314291 -74.7734375 228.85546875 C-74.3103418 228.21399902 -73.84724609 227.5725293 -73.37011719 226.91162109 C-52.57531086 197.89819743 -24 153.21784945 -24 116 C-24.35078613 116.66717041 -24.70157227 117.33434082 -25.06298828 118.02172852 C-42.24909983 150.59851236 -61.70587973 181.65903923 -84 211 C-84.55526367 211.73395996 -85.11052734 212.46791992 -85.68261719 213.22412109 C-97.69408469 229.08970295 -110.08352765 244.62636154 -122.66601562 260.04101562 C-124.32001953 262.0681908 -125.97293782 264.09624212 -127.625 266.125 C-128.16479492 266.78781982 -128.70458984 267.45063965 -129.26074219 268.13354492 C-133.22557766 273.0152336 -137.10864697 277.95635683 -140.97265625 282.91796875 C-144.09520129 286.90535862 -147.32865092 290.78059706 -150.625 294.625 C-155.20117172 299.97690226 -159.47291888 305.49729088 -163.64501953 311.17236328 C-165.21615484 313.29155587 -166.80824306 315.39412248 -168.40234375 317.49609375 C-181.3016237 334.52591842 -193.58038169 351.8546305 -204.79443359 370.04541016 C-205.7991866 371.6744204 -206.81432625 373.29701856 -207.83203125 374.91796875 C-211.29957532 380.52642394 -214.26791943 386.35142542 -217.16015625 392.2734375 C-218.35614927 394.71906125 -219.5913976 397.13623229 -220.87109375 399.5390625 C-239.11816078 434.13342575 -250.02817261 474.9705615 -253 514 C-253.12592529 515.5768457 -253.12592529 515.5768457 -253.25439453 517.18554688 C-253.97779718 526.96377656 -254.24126119 536.69775771 -254.25 546.5 C-254.25100708 547.29659027 -254.25201416 548.09318054 -254.25305176 548.91390991 C-254.22968366 576.59170223 -251.62827033 604.81779756 -244.41796875 631.609375 C-243.97995125 634.11467138 -244.18121778 635.61606266 -245 638 C-246.2684375 636.82244141 -246.2684375 636.82244141 -247.5625 635.62109375 C-254.78807415 628.90126267 -254.78807415 628.90126267 -262.1875 622.375 C-269.71312991 615.84961204 -276.62684849 608.64778181 -283 601 C-283.69416016 600.16855469 -283.69416016 600.16855469 -284.40234375 599.3203125 C-324.96720281 550.56155423 -348.73763717 494.22234925 -343.05249023 429.93481445 C-338.41324629 384.44476221 -317.07614132 342.73600089 -288 308 C-287.15953125 306.98679687 -286.3190625 305.97359375 -285.453125 304.9296875 C-279.97894503 298.36986526 -274.33234958 292.00441693 -268.5078125 285.75390625 C-266.73970547 283.81229339 -265.05667278 281.87336741 -263.3984375 279.84375 C-261.50619839 277.6001831 -259.7641589 275.76911911 -257.5 273.9375 C-254.46735672 271.4699011 -251.74434753 268.78536917 -249 266 C-238.14275114 254.9966895 -238.14275114 254.9966895 -232.28125 250 C-229.80707398 247.83085938 -227.41072717 245.59116117 -225.01245117 243.33886719 C-219.41083847 238.07822221 -213.7233443 233.05762047 -207.72265625 228.25 C-203.60574739 224.84779125 -199.71531817 221.21291539 -195.80078125 217.58203125 C-193.39888867 215.36773419 -190.96875076 213.20147329 -188.5 211.0625 C-186.57700939 209.39617138 -184.73802481 207.73802481 -182.9375 205.9375 C-180.78901793 203.78901793 -178.49191662 201.85462844 -176.17578125 199.890625 C-173.46822302 197.53791731 -170.82634731 195.11652433 -168.1875 192.6875 C-161.98540965 186.97891139 -155.73831729 181.32231552 -149.4375 175.72265625 C-144.87083987 171.65025354 -140.42805895 167.52218093 -136.1796875 163.1171875 C-134.29043625 161.28210833 -132.35859286 159.57297904 -130.36206055 157.85766602 C-126.08020466 154.12023771 -122.0390675 150.18381408 -118.02734375 146.16015625 C-117.30059952 145.43436874 -116.57385529 144.70858124 -115.8250885 143.96080017 C-114.30037704 142.43676444 -112.7769085 140.91148431 -111.25463867 139.38500977 C-108.94366109 137.06867537 -106.62739229 134.75772922 -104.31054688 132.44726562 C-102.8199918 130.95604966 -101.329747 129.46452347 -99.83984375 127.97265625 C-99.15736069 127.29219742 -98.47487762 126.61173859 -97.77171326 125.91065979 C-93.87966154 121.99985928 -90.16848213 117.98943021 -86.58522034 113.79319763 C-85.00326077 112.00368858 -83.34744395 110.34121021 -81.625 108.6875 C-77.9050553 105.03368765 -74.71801307 101.01593121 -71.453125 96.95703125 C-68.89503355 93.87347197 -66.22926937 90.9307877 -63.5 88 C-58.41724057 82.52294911 -53.64815018 76.84944575 -49 71 C-48.566875 70.45585449 -48.13375 69.91170898 -47.6875 69.35107422 C-46.28840139 67.59077366 -44.89324368 65.82743771 -43.5 64.0625 C-43.08556641 63.5380127 -42.67113281 63.01352539 -42.24414062 62.47314453 C-40.81890206 60.65667471 -39.40739033 58.83034225 -38 57 C-37.34128906 56.1443042 -36.68257812 55.2886084 -36.00390625 54.40698242 C-30.48163547 47.14565735 -25.31198263 39.70137075 -20.27050781 32.10131836 C-19.00579126 30.19622362 -17.73376258 28.29616845 -16.4609375 26.39648438 C-11.69341868 19.24761979 -7.12002375 12.03036078 -2.86694336 4.56083679 C-1.96434697 3.00847392 -0.98886659 1.49888412 0 0 Z M-23 111 C-22 113 -22 113 -22 113 Z M-17 221 C-17.42128174 221.9115686 -17.42128174 221.9115686 -17.85107422 222.84155273 C-30.8022723 250.73260141 -46.71675016 276.98747211 -66 301 C-67.07569641 302.38717179 -68.14838386 303.7766799 -69.21875 305.16796875 C-76.78215674 314.99181357 -84.55050154 324.62234569 -92.47363281 334.15771484 C-94.56016614 336.67610584 -96.62393735 339.21277262 -98.6875 341.75 C-101.91618205 345.70348823 -105.1966047 349.609069 -108.5 353.5 C-110.33502537 355.66523974 -112.16837304 357.8318847 -114 360 C-114.67554932 360.79929932 -114.67554932 360.79929932 -115.36474609 361.61474609 C-116.64456474 363.13432586 -117.91622152 364.66076838 -119.1875 366.1875 C-120.29158203 367.50814453 -120.29158203 367.50814453 -121.41796875 368.85546875 C-123.19788298 370.82408684 -123.19788298 370.82408684 -123 373 C-123.66 373 -124.32 373 -125 373 C-126.43898681 374.57703631 -126.43898681 374.57703631 -127.9375 376.6875 C-130.99890495 380.74593871 -134.19636703 384.63975834 -137.5 388.5 C-141.81392847 393.56199594 -145.96527265 398.7115937 -150 404 C-150.72316406 404.92683594 -151.44632813 405.85367188 -152.19140625 406.80859375 C-162.02693064 419.45426797 -171.65381135 432.3130629 -180 446 C-180.64324219 447.03382813 -181.28648437 448.06765625 -181.94921875 449.1328125 C-183.32174925 451.34454736 -184.68498211 453.56207791 -186.0390625 455.78515625 C-187.24508237 457.76235616 -188.46588501 459.73073745 -189.7109375 461.68359375 C-202.25449916 481.97118527 -213.59255563 508.76759353 -213 533 C-210.45481483 530.45481483 -209.52582092 527.92373322 -208.0625 524.625 C-201.28119796 509.73657618 -193.10141105 495.58210572 -184 482 C-181.7226499 479.18490007 -181.7226499 479.18490007 -182 476 C-181.01 475.67 -180.02 475.34 -179 475 C-177.50628498 473.22516722 -177.50628498 473.22516722 -176.0625 470.9375 C-168.59055216 459.90371261 -160.43075951 449.31568541 -152 439 C-151.28328125 438.12085938 -150.5665625 437.24171875 -149.828125 436.3359375 C-148.31614369 434.48506383 -146.80181351 432.63610651 -145.28515625 430.7890625 C-143.76589415 428.93478363 -142.25282176 427.07541548 -140.74609375 425.2109375 C-136.39127903 419.83368802 -131.9035075 414.63637328 -127.2421875 409.5234375 C-124.95484096 406.94917642 -122.78451729 404.30710511 -120.625 401.625 C-116.44265059 396.45382892 -112.00369321 391.57621333 -107.48828125 386.69921875 C-104.57034378 383.5339208 -101.76891861 380.29507891 -99 377 C-97.76830078 375.55173828 -97.76830078 375.55173828 -96.51171875 374.07421875 C-90.59397082 367.11461379 -84.73091212 360.1149079 -79 353 C-78.3822168 352.23381348 -78.3822168 352.23381348 -77.75195312 351.45214844 C-55.94176556 324.31240376 -35.87152966 295.35035178 -25 262 C-24.68514648 261.04706055 -24.37029297 260.09412109 -24.04589844 259.11230469 C-23.05296283 256.08067172 -22.08394043 253.04254586 -21.125 250 C-20.67688965 248.60322021 -20.67688965 248.60322021 -20.21972656 247.17822266 C-18.51021396 241.57991797 -17.55255683 236.27140553 -17.16381836 230.4284668 C-16.94945164 227.25066383 -16.48933753 224.14574129 -16 221 C-16.33 221 -16.66 221 -17 221 Z M-36 369 C-36.40089844 369.66644531 -36.80179688 370.33289063 -37.21484375 371.01953125 C-41.63112097 378.1797086 -46.59171142 384.57075898 -52 391 C-52.67546875 391.84949219 -53.3509375 392.69898438 -54.046875 393.57421875 C-59.80666554 400.81726362 -66.07451323 407.50288412 -72.43359375 414.21875 C-75.1877105 417.12854358 -77.8958927 420.07191237 -80.5625 423.0625 C-90.05481353 433.67051456 -99.80771667 443.97917064 -110.02172852 453.89697266 C-110.67197998 454.53554199 -111.32223145 455.17411133 -111.9921875 455.83203125 C-112.57339355 456.39639893 -113.15459961 456.9607666 -113.75341797 457.54223633 C-115.21663681 458.93365647 -115.21663681 458.93365647 -115 461 C-115.5775 461.226875 -116.155 461.45375 -116.75 461.6875 C-119.56427613 463.32916107 -121.02737733 465.43559053 -123 468 C-123.99 468.495 -123.99 468.495 -125 469 C-125 469.66 -125 470.32 -125 471 C-125.66 471 -126.32 471 -127 471 C-128.67080281 472.65160781 -128.67080281 472.65160781 -130.375 474.75 C-132.33757727 477.06903702 -134.2588295 479.25219284 -136.4375 481.375 C-138.23103624 482.86455501 -138.23103624 482.86455501 -138 485 C-139.485 485.495 -139.485 485.495 -141 486 C-142.58016767 487.52069973 -142.58016767 487.52069973 -144.125 489.4375 C-146.81947656 492.61879375 -149.56266639 495.73466636 -152.375 498.8125 C-156.61630494 503.52426902 -160.68848665 508.34404897 -164.64257812 513.29931641 C-165.62528802 514.53053172 -166.6114048 515.75903032 -167.59960938 516.98583984 C-175.84498149 527.24597096 -183.34472424 537.64357465 -190 549 C-190.39558105 549.66241699 -190.79116211 550.32483398 -191.19873047 551.00732422 C-200.19361481 566.10340394 -209.59677462 584.0049499 -209 602 C-206.08929703 598.40982693 -203.97810754 594.49850365 -201.8125 590.4375 C-201.44447266 589.76525391 -201.07644531 589.09300781 -200.69726562 588.40039062 C-198.55051834 584.42589602 -198.55051834 584.42589602 -198 580 C-197.34 580 -196.68 580 -196 580 C-194.6799517 578.42096358 -194.6799517 578.42096358 -193.3828125 576.3359375 C-192.86428711 575.55017334 -192.34576172 574.76440918 -191.81152344 573.95483398 C-190.97669434 572.67781616 -190.97669434 572.67781616 -190.125 571.375 C-184.30912652 562.6731089 -178.01631528 554.74985057 -171 547 C-170.17371094 546.07574219 -169.34742188 545.15148437 -168.49609375 544.19921875 C-165.65117209 541.02696262 -162.78966934 537.86997469 -159.92578125 534.71484375 C-158.97251953 533.64943359 -158.97251953 533.64943359 -158 532.5625 C-157.443125 531.94503906 -156.88625 531.32757812 -156.3125 530.69140625 C-154.78972717 528.92212083 -154.78972717 528.92212083 -154 526 C-152.68127083 525.30489167 -151.3452413 524.64229905 -150 524 C-148.64177782 522.82109572 -147.33086458 521.58661248 -146.05761719 520.31640625 C-144.91688751 519.18513306 -144.91688751 519.18513306 -143.75311279 518.03100586 C-142.94255432 517.21639893 -142.13199585 516.40179199 -141.296875 515.5625 C-140.45908508 514.72662354 -139.62129517 513.89074707 -138.75811768 513.02954102 C-136.99058097 511.26336443 -135.22556398 509.49466312 -133.46289062 507.72363281 C-130.75351726 505.00353119 -128.03362235 502.29428001 -125.3125 499.5859375 C-123.59831643 497.87043283 -121.8847531 496.15430814 -120.171875 494.4375 C-119.3532196 493.62289307 -118.53456421 492.80828613 -117.69110107 491.96899414 C-116.94322327 491.21481201 -116.19534546 490.46062988 -115.42480469 489.68359375 C-114.76180359 489.01900146 -114.09880249 488.35440918 -113.41571045 487.66967773 C-111.78442814 486.11060248 -111.78442814 486.11060248 -112 484 C-111.01 483.67 -110.02 483.34 -109 483 C-109 482.34 -109 481.68 -109 481 C-108.13375 480.63841797 -108.13375 480.63841797 -107.25 480.26953125 C-104.56015185 478.75182179 -103.01938475 477.02432592 -101 474.6875 C-97.89595252 471.14439317 -94.75954106 467.64869209 -91.54077148 464.21044922 C-85.74904033 458.01583896 -80.2786053 451.64141218 -75 445 C-74.12957973 443.93304397 -73.25845565 442.86666182 -72.38671875 441.80078125 C-56.53201583 422.2438215 -40.58210494 397.86923993 -35 373 C-35.31882978 370.74545285 -35.31882978 370.74545285 -36 369 Z " fill="#00C2FE" transform="translate(638,155)"/>
<path d="M0 0 C0.33 0 0.66 0 1 0 C15.33798263 86.86116534 21.99598586 172.74140151 8 288 C7.67 288 7.34 288 7 288 C6.84288981 281.62581513 7.45719164 275.56144107 8.3125 269.25 C9.49903187 260.0918587 10.61456467 250.92933359 11.625 241.75 C11.74786377 240.6765332 11.87072754 239.60306641 11.99731445 238.49707031 C14.33964756 216.9237143 14.2177679 195.26989349 14.24023438 173.59936523 C14.24457868 170.02536587 14.25833651 166.45161341 14.28125 162.87768555 C14.44074062 137.44008061 13.443771 112.32348394 11 87 C10.89051025 85.86428558 10.78102051 84.72857117 10.66821289 83.55844116 C10.06914519 77.52799925 9.37774547 71.51299972 8.625 65.5 C8.52150238 64.65095093 8.41800476 63.80190186 8.31137085 62.92712402 C6.8568822 51.00205209 5.21129683 39.11253444 3.3125 27.25 C3.11027832 25.98349609 2.90805664 24.71699219 2.69970703 23.41210938 C1.80952327 18.0665596 0.71973372 13.14247839 -1 8 C-0.97210551 5.21984907 -0.47541729 2.7574203 0 0 Z " fill="#0894EA" transform="translate(642,168)"/>
<path d="M0 0 C0.33 0 0.66 0 1 0 C1.02712351 2.39591038 1.0468982 4.79150957 1.0625 7.1875 C1.07087891 7.86103516 1.07925781 8.53457031 1.08789062 9.22851562 C1.10610516 12.96249589 0.8736022 16.37069673 0 20 C-0.94171148 25.23173045 -1.02689516 30.15940496 -0.83984375 35.44921875 C-1 38 -1 38 -1.98413086 39.67016602 C-3.43292291 42.99288232 -3.35708542 46.26156866 -3.4140625 49.828125 C-3.43342865 50.57713074 -3.4527948 51.32613647 -3.4727478 52.09783936 C-3.53235716 54.48177836 -3.57885354 56.86576614 -3.625 59.25 C-3.66319701 60.86981231 -3.70224975 62.48960468 -3.7421875 64.109375 C-3.83804313 68.07275406 -3.92214246 72.03622819 -4 76 C-4.33 76 -4.66 76 -5 76 C-5.07770605 69.46118018 -5.12927133 62.92248404 -5.16479492 56.38330078 C-5.17964358 54.17069046 -5.19992767 51.95810822 -5.22631836 49.74560547 C-5.3674737 37.58410418 -5.10483395 25.64551294 -3.61328125 13.5625 C-3.48793503 12.54357666 -3.36258881 11.52465332 -3.23344421 10.47485352 C-2.26799429 3.40199144 -2.26799429 3.40199144 0 0 Z " fill="#03C0E8" transform="translate(407,652)"/>
<path d="M0 0 C0.99 0.33 1.98 0.66 3 1 C0.03776042 3.96223958 -2.92447917 6.92447917 -5.88671875 9.88671875 C-6.40951416 10.41031982 -6.93230957 10.9339209 -7.47094727 11.47338867 C-8.89413759 12.89430661 -10.3256513 14.30687437 -11.7578125 15.71875 C-14.08896841 18.00270641 -14.08896841 18.00270641 -16.1875 20.8125 C-16.785625 21.534375 -17.38375 22.25625 -18 23 C-18.66 23 -19.32 23 -20 23 C-20 23.66 -20 24.32 -20 25 C-20.66 25 -21.32 25 -22 25 C-22.24621094 25.57492187 -22.49242187 26.14984375 -22.74609375 26.7421875 C-24.19793053 29.35639827 -25.90287549 31.06336208 -28.0625 33.125 C-30.91571933 35.77905 -30.91571933 35.77905 -33 39 C-33.66 38.67 -34.32 38.34 -35 38 C-32.45693947 33.19644122 -29.98247589 29.77287189 -26 26 C-25.34 25.01 -24.68 24.02 -24 23 C-23.01 23 -22.02 23 -21 23 C-21 22.01 -21 21.02 -21 20 C-19.57421875 18.39453125 -19.57421875 18.39453125 -17.6875 16.8125 C-17.07261719 16.28269531 -16.45773437 15.75289062 -15.82421875 15.20703125 C-14 14 -14 14 -11 14 C-10.9071875 13.1646875 -10.9071875 13.1646875 -10.8125 12.3125 C-9.6523629 9.01057134 -7.54440205 7.37092009 -5 5 C-4.071875 4.071875 -3.14375 3.14375 -2.1875 2.1875 C-1.465625 1.465625 -0.74375 0.74375 0 0 Z " fill="#01D2EF" transform="translate(533,601)"/>
<path d="M0 0 C2.06824217 3.77690092 2.17959051 6.35515106 2.0625 10.6875 C1.94667093 17.1618625 2.19413385 23.55376243 2.64477539 30.01245117 C2.87763248 33.45032154 3.02205576 36.86044353 3 40.3046875 C2.90455761 43.929301 2.90455761 43.929301 3.5 47.1875 C4.23436879 52.787062 4.07632162 58.36068001 4 64 C3.67 64 3.34 64 3 64 C2.91435791 63.29391602 2.82871582 62.58783203 2.74047852 61.86035156 C2.35041056 58.65657933 1.95649749 55.45329125 1.5625 52.25 C1.42779297 51.13882813 1.29308594 50.02765625 1.15429688 48.8828125 C1.02216797 47.81289063 0.89003906 46.74296875 0.75390625 45.640625 C0.63345947 44.65610352 0.5130127 43.67158203 0.38891602 42.65722656 C0.06870203 40.10209334 0.06870203 40.10209334 -0.52294922 38.06884766 C-1.30939265 34.65824294 -1.00143147 31.20962746 -0.87890625 27.734375 C-0.85529526 26.94097717 -0.83168427 26.14757935 -0.80735779 25.33013916 C-0.73096071 22.80323317 -0.64683387 20.27665233 -0.5625 17.75 C-0.5092553 16.03386992 -0.45651507 14.31772412 -0.40429688 12.6015625 C-0.27537813 8.40083689 -0.13952774 4.20038608 0 0 Z " fill="#00EFFE" transform="translate(403,692)"/>
<path d="M0 0 C0.33 0 0.66 0 1 0 C1.155742 5.57556349 0.7080539 10.61717971 -0.5625 16.0625 C-0.73595947 16.82054932 -0.90941895 17.57859863 -1.08813477 18.35961914 C-4.43463071 32.47618597 -8.16712424 47.12144614 -15 60 C-16.31276072 56.06171784 -15.00352421 53.90154552 -13.5 50.25 C-10.78203068 43.31221847 -8.39820947 36.30293206 -6.1875 29.1875 C-5.88585937 28.24616211 -5.58421875 27.30482422 -5.2734375 26.33496094 C-3.53855445 20.67282549 -2.56154572 15.33692137 -2.21044922 9.421875 C-1.92048201 6.08489736 -1.05663593 3.1699078 0 0 Z " fill="#039EEB" transform="translate(622,376)"/>
<path d="M0 0 C0.66 0 1.32 0 2 0 C1.0361418 8.55963625 -0.53538829 16.87009543 -2.5 25.25 C-2.71358154 26.17901123 -2.92716309 27.10802246 -3.1472168 28.06518555 C-3.35644775 28.93570557 -3.56567871 29.80622559 -3.78125 30.703125 C-3.96751953 31.48333008 -4.15378906 32.26353516 -4.34570312 33.06738281 C-5 35 -5 35 -7 37 C-5.78167733 29.84772926 -4.29779567 22.80082177 -2.5859375 15.75 C-1.89580479 12.97959872 -1.89580479 12.97959872 -2 10 C-3.65 12.97 -5.3 15.94 -7 19 C-8.13089582 15.60731255 -7.86432909 14.77743849 -6.75 11.5 C-6.49734375 10.7265625 -6.2446875 9.953125 -5.984375 9.15625 C-4.95072838 6.89207168 -3.76870852 5.70908914 -2 4 C-2 3.34 -2 2.68 -2 2 C-1.34 2 -0.68 2 0 2 C0 1.34 0 0.68 0 0 Z M-1 5 C0 7 0 7 0 7 Z " fill="#048BEF" transform="translate(616,261)"/>
<path d="M0 0 C0.75 1.5859375 0.75 1.5859375 1 4 C-0.24158018 6.36974679 -1.49114645 8.437607 -3 10.625 C-3.41137207 11.23947998 -3.82274414 11.85395996 -4.24658203 12.48706055 C-5.08595338 13.73571885 -5.93116681 14.98047019 -6.78222656 16.22119141 C-7.88928884 17.83828358 -8.97332001 19.47108253 -10.0546875 21.10546875 C-14.60151891 27.86717297 -14.60151891 27.86717297 -18 29 C-16.30154325 23.78930245 -13.18046973 19.55045014 -10.125 15.0625 C-9.59519531 14.27681641 -9.06539062 13.49113281 -8.51953125 12.68164062 C-7.48910286 11.15389631 -6.45694253 9.62731837 -5.42285156 8.10205078 C-3.60108311 5.41065985 -1.79874994 2.70681452 0 0 Z " fill="#068AED" transform="translate(633,164)"/>
<path d="M0 0 C0.66 0 1.32 0 2 0 C1.67 3.3 1.34 6.6 1 10 C1.66 10 2.32 10 3 10 C3.061875 9.2575 3.12375 8.515 3.1875 7.75 C4.24185138 4.1814261 5.99909773 3.07754772 9 1 C8.36450004 4.86948863 7.22084247 8.17144416 5.625 11.75 C5.20476562 12.71421875 4.78453125 13.6784375 4.3515625 14.671875 C3 17 3 17 0 18 C-1.30062431 14.18483536 -0.89369853 10.72438237 -0.5625 6.75 C-0.46066406 5.48671875 -0.35882813 4.2234375 -0.25390625 2.921875 C-0.17011719 1.95765625 -0.08632813 0.9934375 0 0 Z " fill="#00E4FA" transform="translate(423,678)"/>
<path d="M0 0 C0.495 1.98 0.495 1.98 1 4 C0.30688721 4.36714111 -0.38622559 4.73428223 -1.1003418 5.11254883 C-4.66455896 7.43257602 -7.42502544 10.17543936 -10.39453125 13.19921875 C-10.98674973 13.79426712 -11.5789682 14.38931549 -12.18913269 15.00239563 C-14.06835999 16.89276401 -15.94048955 18.78998729 -17.8125 20.6875 C-19.09003154 21.97506918 -20.36802154 23.26218365 -21.64648438 24.54882812 C-24.76965543 27.69397895 -27.88648219 30.8452939 -31 34 C-31.66 33.67 -32.32 33.34 -33 33 C-22.11 22.11 -11.22 11.22 0 0 Z " fill="#0881E6" transform="translate(545,276)"/>
<path d="M0 0 C2 1 2 1 2.65429688 2.83837891 C2.84056641 3.62647949 3.02683594 4.41458008 3.21875 5.2265625 C3.42886719 6.09410156 3.63898438 6.96164062 3.85546875 7.85546875 C4.06816406 8.76941406 4.28085937 9.68335938 4.5 10.625 C4.92601735 12.40910904 5.35308232 14.19296829 5.78125 15.9765625 C5.98709717 16.83693115 6.19294434 17.6972998 6.4050293 18.58374023 C7.8297177 24.36960035 9.63402901 30.01710152 11.51171875 35.66796875 C12.04386563 38.20950226 11.70219191 39.54572134 11 42 C4.06720705 21.05256025 4.06720705 21.05256025 1.5625 10.3125 C1.39911133 9.61326416 1.23572266 8.91402832 1.06738281 8.19360352 C0.43901817 5.39150304 0 2.88199851 0 0 Z " fill="#05D2E7" transform="translate(408,774)"/>
<path d="M0 0 C0.66 0.33 1.32 0.66 2 1 C1.27554687 1.71285156 0.55109375 2.42570312 -0.1953125 3.16015625 C-4.88860034 7.80149486 -9.50773457 12.41936508 -13.7265625 17.50390625 C-15.68448101 19.8041602 -17.83572351 21.89584231 -20 24 C-20.66 24.66 -21.32 25.32 -22 26 C-22.99 25.67 -23.98 25.34 -25 25 C-24.278125 24.29875 -23.55625 23.5975 -22.8125 22.875 C-20.94814374 21.02105913 -19.34702112 19.18818842 -17.6875 17.125 C-15.11935789 13.97721453 -12.15647239 11.44101641 -9.0703125 8.8125 C-5.89141739 6.0294673 -2.94449752 3.02731151 0 0 Z " fill="#0584E6" transform="translate(400,410)"/>
<path d="M0 0 C0.66 0.33 1.32 0.66 2 1 C0.77023437 2.21236328 0.77023437 2.21236328 -0.484375 3.44921875 C-1.57305137 4.52850998 -2.6615855 5.60794469 -3.75 6.6875 C-4.28882813 7.21794922 -4.82765625 7.74839844 -5.3828125 8.29492188 C-7.81963129 10.71688202 -10.08228815 13.10304033 -12.23046875 15.79296875 C-14.23394533 18.29178612 -16.22985244 19.43735266 -19 21 C-20.75149165 22.58245275 -20.75149165 22.58245275 -22 24 C-22.66 23.67 -23.32 23.34 -24 23 C-20.49342469 19.39480226 -16.94436029 15.89983302 -13.125 12.625 C-8.51153926 8.65380536 -4.25757544 4.34627493 0 0 Z " fill="#0680E5" transform="translate(504,316)"/>
<path d="M0 0 C1.86529124 2.79793686 2.61067174 4.69468482 3.5 7.875 C4.29322875 10.6593948 5.093588 13.21525241 6.25 15.875 C7 18 7 18 6 22 C3.36 19.03 0.72 16.06 -2 13 C-1.01 13 -0.02 13 1 13 C0.67 8.71 0.34 4.42 0 0 Z " fill="#02EBF8" transform="translate(387,771)"/>
<path d="M0 0 C0.66 0.66 1.32 1.32 2 2 C-1.96 6.29 -5.92 10.58 -10 15 C-10.33 13.68 -10.66 12.36 -11 11 C-9.453125 8.7109375 -9.453125 8.7109375 -7.25 6.375 C-6.53328125 5.59898437 -5.8165625 4.82296875 -5.078125 4.0234375 C-3 2 -3 2 0 0 Z " fill="#01CCF3" transform="translate(502,575)"/>
<path d="M0 0 C0 4.13997696 -2.16832917 6.45607031 -4.5 9.6875 C-4.92925781 10.29400391 -5.35851562 10.90050781 -5.80078125 11.52539062 C-6.86093138 13.02138026 -7.92965571 14.511287 -9 16 C-9.66 15.34 -10.32 14.68 -11 14 C-8.86421277 7.4591516 -5.36613383 4.19348701 0 0 Z " fill="#01C9F5" transform="translate(567,499)"/>
<path d="M0 0 C1 2 1 2 0.0390625 4.90625 C-0.42757813 6.0921875 -0.89421875 7.278125 -1.375 8.5 C-3.59137939 14.32940206 -4.8417361 19.75576976 -5 26 C-5.99 26.33 -6.98 26.66 -8 27 C-5.26439128 6.46684277 -5.26439128 6.46684277 0 0 Z " fill="#01F1FB" transform="translate(435,724)"/>
<path d="M0 0 C0.66 0.66 1.32 1.32 2 2 C1.52949219 2.44730469 1.05898438 2.89460938 0.57421875 3.35546875 C-3.42009649 7.2099454 -3.42009649 7.2099454 -6.5625 11.75 C-8.51715154 14.80945458 -10.65914835 15.7205249 -14 17 C-14.66 16.67 -15.32 16.34 -16 16 C-15.55084229 15.58637207 -15.10168457 15.17274414 -14.63891602 14.74658203 C-12.61067711 12.87569517 -10.58655288 11.00041436 -8.5625 9.125 C-7.85544922 8.47402344 -7.14839844 7.82304687 -6.41992188 7.15234375 C-5.74638672 6.52714844 -5.07285156 5.90195312 -4.37890625 5.2578125 C-3.7557251 4.6817627 -3.13254395 4.10571289 -2.49047852 3.51220703 C-0.89665023 2.051096 -0.89665023 2.051096 0 0 Z " fill="#0586EA" transform="translate(456,359)"/>
<path d="M0 0 C0 3.92791315 -0.92939028 5.63525921 -3 9 C-5.54028236 11.49518859 -8.22442221 13.77162638 -11 16 C-11 11.61381654 -8.26543217 9.44824189 -5.5 6.3125 C-4.97535156 5.70599609 -4.45070313 5.09949219 -3.91015625 4.47460938 C-2.61333098 2.97736565 -1.30750638 1.48792528 0 0 Z " fill="#0589EA" transform="translate(356,456)"/>
<path d="M0 0 C0.74609375 1.671875 0.74609375 1.671875 1 4 C-0.65234375 6.578125 -0.65234375 6.578125 -2.9375 9.25 C-4.06478516 10.58804688 -4.06478516 10.58804688 -5.21484375 11.953125 C-5.80394531 12.62859375 -6.39304687 13.3040625 -7 14 C-7.99 13.67 -8.98 13.34 -10 13 C-3.84965831 3.40546697 -3.84965831 3.40546697 0 0 Z " fill="#02D5EF" transform="translate(466,674)"/>
<path d="M0 0 C0.99 0.99 1.98 1.98 3 3 C3.66 2.67 4.32 2.34 5 2 C4.67112602 5.61761381 4.37334709 7.55665033 2 10.375 C0 12 0 12 -1 12 C-1.02698189 10.37509046 -1.04638757 8.75005367 -1.0625 7.125 C-1.07410156 6.22007812 -1.08570313 5.31515625 -1.09765625 4.3828125 C-1 2 -1 2 0 0 Z " fill="#00E6F5" transform="translate(428,752)"/>
<path d="M0 0 C1 2 1 2 -0.125 5.8125 C-1.91833653 10.357823 -4.54769948 13.77384974 -9 16 C-7.56691865 12.04093183 -5.66858051 8.71281819 -3.375 5.1875 C-2.74335938 4.21167969 -2.11171875 3.23585938 -1.4609375 2.23046875 C-0.73777344 1.12638672 -0.73777344 1.12638672 0 0 Z " fill="#0786E6" transform="translate(333,486)"/>
<path d="M0 0 C1 2 1 2 1 6 C-1.9503138 9.45608188 -5.01757765 11.83811358 -9 14 C-7.65070536 10.16336928 -5.92248975 7.34827431 -3.375 4.1875 C-2.42753906 3.00220703 -2.42753906 3.00220703 -1.4609375 1.79296875 C-0.97882813 1.20128906 -0.49671875 0.60960937 0 0 Z " fill="#068EEC" transform="translate(343,472)"/>
<path d="M0 0 C0.33 0.99 0.66 1.98 1 3 C-1.25808108 6.19245946 -3.49684685 9.27119847 -7.0625 11 C-9.16865601 11.84589942 -9.16865601 11.84589942 -10 14 C-10.66 13.67 -11.32 13.34 -12 13 C-8.13635705 8.51282966 -4.25209792 4.12324647 0 0 Z " fill="#0586EC" transform="translate(558,262)"/>
<path d="M0 0 C0 3.9283071 -1.49298527 6.12795291 -4 9 C-6.56317574 11.15717653 -9.23639614 13.10840706 -12 15 C-11.15337259 10.68493126 -9.22178471 9.00699906 -6 6 C-4.8919386 4.89974185 -3.7877489 3.79557058 -2.6875 2.6875 C-1.800625 1.800625 -0.91375 0.91375 0 0 Z " fill="#01E7FA" transform="translate(494,641)"/>
<path d="M0 0 C0 4.15560231 -2.2820452 5.84099329 -5 8.6875 C-5.47695313 9.19861328 -5.95390625 9.70972656 -6.4453125 10.23632812 C-7.62359915 11.49709484 -8.81095253 12.74937686 -10 14 C-10.33 12.68 -10.66 11.36 -11 10 C-5.555 5.05 -5.555 5.05 0 0 Z " fill="#00CDF6" transform="translate(551,519)"/>
<path d="M0 0 C0.6328125 1.80859375 0.6328125 1.80859375 1 4 C-1.86720407 8.13214705 -4.47843417 10.67462329 -9 13 C-7.50923566 9.7173068 -5.61379679 7.06922559 -3.375 4.25 C-2.74335937 3.45078125 -2.11171875 2.6515625 -1.4609375 1.828125 C-0.97882812 1.22484375 -0.49671875 0.6215625 0 0 Z " fill="#01A3EF" transform="translate(524,437)"/>
<path d="M0 0 C0 3.25440983 -0.37466113 3.93806022 -2.1171875 6.5390625 C-2.55933594 7.20164062 -3.00148438 7.86421875 -3.45703125 8.546875 C-3.92496094 9.23265625 -4.39289062 9.9184375 -4.875 10.625 C-5.33519531 11.31851562 -5.79539062 12.01203125 -6.26953125 12.7265625 C-9.73294827 17.86647413 -9.73294827 17.86647413 -12 19 C-10.66361822 14.99085467 -8.65579743 12.05120181 -6.1640625 8.70703125 C-4.8434564 6.9026212 -4.8434564 6.9026212 -3.875 4.1875 C-3 2 -3 2 0 0 Z " fill="#038AE8" transform="translate(578,329)"/>
<path d="M0 0 C0.33 0.66 0.66 1.32 1 2 C-0.19614677 4.43659526 -1.43812986 6.73002411 -2.8125 9.0625 C-3.36647461 10.03799805 -3.36647461 10.03799805 -3.93164062 11.03320312 C-6.73305861 15.8665293 -6.73305861 15.8665293 -9 17 C-8.70996094 16.28199219 -8.41992188 15.56398438 -8.12109375 14.82421875 C-7.40574843 13.02214675 -6.70846176 11.21272873 -6.03515625 9.39453125 C-5.71417969 8.54246094 -5.39320313 7.69039063 -5.0625 6.8125 C-4.74410156 5.95269531 -4.42570313 5.09289062 -4.09765625 4.20703125 C-3 2 -3 2 0 0 Z " fill="#0392EF" transform="translate(601,291)"/>
<path d="M0 0 C1.05078125 1.83984375 1.05078125 1.83984375 2 4 C1.36281399 6.00958663 0.68836513 8.00736409 0 10 C-0.30480559 12.83672401 -0.49865678 15.66322132 -0.65625 18.51171875 C-1 21 -1 21 -3 24 C-4.04318738 20.76319429 -3.92287835 18.54451583 -3.22265625 15.234375 C-2.94711914 13.90019531 -2.94711914 13.90019531 -2.66601562 12.5390625 C-2.46685547 11.61867188 -2.26769531 10.69828125 -2.0625 9.75 C-1.86720703 8.81414063 -1.67191406 7.87828125 -1.47070312 6.9140625 C-0.98823295 4.60761973 -0.49775423 2.303184 0 0 Z " fill="#03ACFD" transform="translate(301,558)"/>
<path d="M0 0 C0.66 0 1.32 0 2 0 C3.45184478 4.53701494 4.23509196 8.18061476 4 13 C2.23537317 9.91190305 2 8.76687864 2 5 C0.68 5.33 -0.64 5.66 -2 6 C-2 6.99 -2 7.98 -2 9 C-2.66 9 -3.32 9 -4 9 C-2.80100302 5.9168649 -1.52299523 2.93720508 0 0 Z " fill="#0B84E3" transform="translate(638,155)"/>
<path d="M0 0 C9.6878453 9.60082873 9.6878453 9.60082873 10 16 C7.00123678 13.19680829 4.83677273 10.40565083 2.75 6.875 C2.22921875 6.00617187 1.7084375 5.13734375 1.171875 4.2421875 C0 2 0 2 0 0 Z " fill="#04B9EA" transform="translate(322,708)"/>
<path d="M0 0 C0.33 0.66 0.66 1.32 1 2 C-0.41097867 4.45669355 -1.86043594 6.77914624 -3.4375 9.125 C-4.0881543 10.11306641 -4.0881543 10.11306641 -4.75195312 11.12109375 C-5.82749114 12.75212943 -6.91284486 14.37668453 -8 16 C-8.33 15.34 -8.66 14.68 -9 14 C-7.33544241 9.26915212 -5.75962284 6.39578837 -2 3 C-1.34 2.01 -0.68 1.02 0 0 Z " fill="#038EED" transform="translate(591,308)"/>
<path d="M0 0 C0.33 0.66 0.66 1.32 1 2 C0.01 3.485 0.01 3.485 -1 5 C-1.66 5 -2.32 5 -3 5 C-3.0825 5.598125 -3.165 6.19625 -3.25 6.8125 C-4.20455872 9.5966296 -5.57132271 10.43311142 -8 12 C-7.49572053 7.58755464 -5.98672249 5.25025683 -3 2 C-2.01 1.34 -1.02 0.68 0 0 Z " fill="#01D9F4" transform="translate(576,584)"/>
<path d="M0 0 C0 4.20547571 -2.36738124 6.16710361 -5 9.1875 C-5.47695313 9.74630859 -5.95390625 10.30511719 -6.4453125 10.88085938 C-7.62366206 12.25952836 -8.81098952 13.63051472 -10 15 C-11.125 11.25 -11.125 11.25 -10 9 C-9.34 8.690625 -8.68 8.38125 -8 8.0625 C-5.65391779 7.1108154 -5.65391779 7.1108154 -5 4 C-3.37667033 2.61423077 -1.71275535 1.27358732 0 0 Z " fill="#0292E8" transform="translate(519,408)"/>
<path d="M0 0 C0 3.99282941 -1.47808076 5.15331592 -4 8.1875 C-4.7425 9.08855469 -5.485 9.98960937 -6.25 10.91796875 C-6.8275 11.60503906 -7.405 12.29210937 -8 13 C-8 9.61244725 -7.56978799 7.99686799 -6 5 C-4.10088381 3.14634137 -2.12000619 1.61304819 0 0 Z " fill="#029AEB" transform="translate(480,456)"/>
<path d="M0 0 C-1.33912585 4.38259368 -3.12225036 6.54093925 -7 9 C-7.99 8.67 -8.98 8.34 -10 8 C-8.71451591 6.66070495 -7.42141845 5.32871357 -6.125 4 C-5.04605469 2.88625 -5.04605469 2.88625 -3.9453125 1.75 C-2 0 -2 0 0 0 Z " fill="#058BEB" transform="translate(468,351)"/>
<path d="M0 0 C0.99 0.33 1.98 0.66 3 1 C0.78071806 3.90802461 -0.92969143 5.95312762 -4 8 C-4.99 7.67 -5.98 7.34 -7 7 C-4.69 4.69 -2.38 2.38 0 0 Z " fill="#01D7F1" transform="translate(508,658)"/>
<path d="M0 0 C0.66 0.99 1.32 1.98 2 3 C1.278125 3.680625 0.55625 4.36125 -0.1875 5.0625 C-3.23455693 8.09214518 -5.57207954 11.46217304 -8 15 C-8 11.14003715 -6.66484897 9.58139944 -4.5625 6.375 C-3.92441406 5.39273437 -3.28632812 4.41046875 -2.62890625 3.3984375 C-1 1 -1 1 0 0 Z " fill="#028EE7" transform="translate(573,370)"/>
<path d="M0 0 C0 3.58912412 -0.66436554 4.10857029 -3 6.6875 C-3.556875 7.31011719 -4.11375 7.93273437 -4.6875 8.57421875 C-5.120625 9.04472656 -5.55375 9.51523437 -6 10 C-6.66 9.67 -7.32 9.34 -8 9 C-5.36 6.03 -2.72 3.06 0 0 Z M-9 10 C-9 13 -9 13 -9 13 Z " fill="#00F1FE" transform="translate(468,702)"/>
<path d="M0 0 C0.99 0 1.98 0 3 0 C1.22054913 4.04420651 -1.39529673 7.46078487 -4 11 C-4 7.17798532 -2.7916472 2.7916472 0 0 Z " fill="#019FEE" transform="translate(459,481)"/>
<path d="M0 0 C0.33 0 0.66 0 1 0 C1.95261487 4.76307437 2.08333357 9.1666528 2 14 C1.34 13.67 0.68 13.34 0 13 C-0.44921875 10.8203125 -0.44921875 10.8203125 -0.6875 8.125 C-0.77386719 7.24070313 -0.86023438 6.35640625 -0.94921875 5.4453125 C-1 3 -1 3 0 0 Z " fill="#088EEF" transform="translate(642,168)"/>
<path d="M0 0 C0 3 0 3 -1.96875 5.26171875 C-2.8040625 6.06222656 -3.639375 6.86273437 -4.5 7.6875 C-5.3353125 8.49574219 -6.170625 9.30398438 -7.03125 10.13671875 C-7.6809375 10.75160156 -8.330625 11.36648438 -9 12 C-9.33 11.01 -9.66 10.02 -10 9 C-6.7 6.03 -3.4 3.06 0 0 Z " fill="#01C4EA" transform="translate(571,562)"/>
<path d="M0 0 C3 3.625 3 3.625 3 7 C4.65 6.67 6.3 6.34 8 6 C7.34 7.65 6.68 9.3 6 11 C5.01 10.67 4.02 10.34 3 10 C1.25327015 6.5065403 0 3.93154432 0 0 Z " fill="#0BDCE8" transform="translate(423,825)"/>
<path d="M0 0 C0.66 1.32 1.32 2.64 2 4 C1.34 4 0.68 4 0 4 C-0.12117187 4.60328125 -0.24234375 5.2065625 -0.3671875 5.828125 C-0.53476562 6.62734375 -0.70234375 7.4265625 -0.875 8.25 C-1.11863281 9.43335938 -1.11863281 9.43335938 -1.3671875 10.640625 C-1.99150075 12.96831144 -2.84838542 14.89031952 -4 17 C-4.56131481 10.54487966 -2.63463787 5.84560277 0 0 Z " fill="#00E5FD" transform="translate(631,533)"/>
<path d="M0 0 C0 3 0 3 -1.4609375 4.82421875 C-2.09257813 5.43910156 -2.72421875 6.05398438 -3.375 6.6875 C-4.00148438 7.31011719 -4.62796875 7.93273437 -5.2734375 8.57421875 C-7 10 -7 10 -9 10 C-9 9.01 -9 8.02 -9 7 C-7.04109119 5.60699818 -5.0360882 4.27754554 -3 3 C-1.20605554 1.37648891 -1.20605554 1.37648891 0 0 Z " fill="#04DAEA" transform="translate(538,715)"/>
<path d="M0 0 C0.33 0 0.66 0 1 0 C1.33 2.97 1.66 5.94 2 9 C2.66 9 3.32 9 4 9 C3.67 10.98 3.34 12.96 3 15 C0.33684806 12.33684806 0.05573507 10.34655932 -0.09765625 6.640625 C-0.08605469 5.85171875 -0.07445312 5.0628125 -0.0625 4.25 C-0.05347656 3.45078125 -0.04445313 2.6515625 -0.03515625 1.828125 C-0.02355469 1.22484375 -0.01195312 0.6215625 0 0 Z " fill="#02DAF7" transform="translate(402,679)"/>
<path d="M0 0 C0.99 0.33 1.98 0.66 3 1 C0.42215154 3.64752004 -1.91648098 5.94432065 -5 8 C-3.375 2.25 -3.375 2.25 0 0 Z " fill="#00DFF5" transform="translate(532,634)"/>
<path d="M0 0 C1.47557505 3.83649513 0.61403853 6.31076908 -1 10 C-3.125 12.375 -3.125 12.375 -5 14 C-3.45730076 9.27934033 -1.92205381 4.58335908 0 0 Z " fill="#00E5FE" transform="translate(599,541)"/>
<path d="M0 0 C0.33 0.66 0.66 1.32 1 2 C-0.12104533 3.31587941 -1.24696965 4.62760353 -2.375 5.9375 C-3.00148438 6.66839844 -3.62796875 7.39929688 -4.2734375 8.15234375 C-6 10 -6 10 -8 11 C-6.63629701 8.00779732 -5.05091917 5.70973471 -2.875 3.25 C-2.33617187 2.63640625 -1.79734375 2.0228125 -1.2421875 1.390625 C-0.62730469 0.70226562 -0.62730469 0.70226562 0 0 Z " fill="#029CE9" transform="translate(494,475)"/>
<path d="M0 0 C0 3.58912412 -0.66436554 4.10857029 -3 6.6875 C-3.556875 7.31011719 -4.11375 7.93273437 -4.6875 8.57421875 C-5.120625 9.04472656 -5.55375 9.51523437 -6 10 C-6 5.46153846 -6 5.46153846 -5 3 C-2.4375 1.25 -2.4375 1.25 0 0 Z " fill="#028FE7" transform="translate(534,389)"/>
<path d="M0 0 C0.99 0.33 1.98 0.66 3 1 C1.68 1.99 0.36 2.98 -1 4 C-0.67 2.68 -0.34 1.36 0 0 Z M-2 4 C-2 7 -2 7 -3.5 8.6875 C-3.995 9.120625 -4.49 9.55375 -5 10 C-5.66 9.67 -6.32 9.34 -7 9 C-5.35 7.35 -3.7 5.7 -2 4 Z " fill="#00EAFB" transform="translate(497,669)"/>
<path d="M0 0 C0.33 1.32 0.66 2.64 1 4 C-0.98 5.32 -2.96 6.64 -5 8 C-3.8141763 4.62496331 -2.72426311 2.35277269 0 0 Z " fill="#01E0F4" transform="translate(466,674)"/>
<path d="M0 0 C0.66 0.66 1.32 1.32 2 2 C-0.31 4.31 -2.62 6.62 -5 9 C-5.66 8.67 -6.32 8.34 -7 8 C-4.69 5.36 -2.38 2.72 0 0 Z " fill="#00ECFE" transform="translate(563,601)"/>
<path d="M0 0 C0.65234375 1.765625 0.65234375 1.765625 1 4 C0.00390625 5.921875 0.00390625 5.921875 -1.4375 7.75 C-2.14712891 8.67039062 -2.14712891 8.67039062 -2.87109375 9.609375 C-3.24363281 10.06828125 -3.61617188 10.5271875 -4 11 C-4.33 10.34 -4.66 9.68 -5 9 C-4.2578125 7.08984375 -4.2578125 7.08984375 -3.125 4.9375 C-2.75632812 4.22464844 -2.38765625 3.51179687 -2.0078125 2.77734375 C-1 1 -1 1 0 0 Z " fill="#01BFEA" transform="translate(466,585)"/>
<path d="M0 0 C0.66 0 1.32 0 2 0 C0.44499019 3.81684226 -2.03595495 6.19195732 -5 9 C-3.50079488 5.88626628 -1.91847864 2.87771795 0 0 Z " fill="#03DAEA" transform="translate(551,698)"/>
<path d="M0 0 C0 3 0 3 -2.5 5.6875 C-3.325 6.450625 -4.15 7.21375 -5 8 C-5.33 7.01 -5.66 6.02 -6 5 C-4.02 3.35 -2.04 1.7 0 0 Z " fill="#0197E9" transform="translate(467,473)"/>
<path d="M0 0 C0.66 0.66 1.32 1.32 2 2 C0.02 4.31 -1.96 6.62 -4 9 C-4 5.00095031 -2.27413033 3.19799578 0 0 Z " fill="#00E4FE" transform="translate(453,640)"/>
<path d="M0 0 C0.66 0.66 1.32 1.32 2 2 C1.01 3.98 0.02 5.96 -1 8 C-1.66 8 -2.32 8 -3 8 C-2.37240135 5.07120629 -1.41377341 2.63904371 0 0 Z " fill="#03DCF2" transform="translate(598,623)"/>
<path d="M0 0 C0 3.99904969 -1.72586967 5.80200422 -4 9 C-5 7 -5 7 -4.25 4.5 C-3 2 -3 2 0 0 Z " fill="#02BCE8" transform="translate(459,598)"/>
<path d="M0 0 C0.66 0.66 1.32 1.32 2 2 C0.8553125 2.8971875 0.8553125 2.8971875 -0.3125 3.8125 C-2.3483575 5.46959332 -4.1978279 7.10297674 -6 9 C-4.68775452 5.06326356 -3.08089673 2.77280706 0 0 Z " fill="#0594F1" transform="translate(330,493)"/>
<path d="M0 0 C0.33 0.99 0.66 1.98 1 3 C-1.31 4.65 -3.62 6.3 -6 8 C-4.55746343 4.63408134 -2.66735273 2.48952921 0 0 Z " fill="#0582E3" transform="translate(363,448)"/>
<path d="" fill="#0EE6EE" transform="translate(0,0)"/>
<path d="" fill="#04EFFC" transform="translate(0,0)"/>
<path d="" fill="#03DDFC" transform="translate(0,0)"/>
<path d="M0 0 C2 1 2 1 2 1 Z " fill="#01E1FD" transform="translate(465,616)"/>
<path d="M0 0 C2 1 2 1 2 1 Z " fill="#01B0F9" transform="translate(525,432)"/>
<path d="M0 0 C2 1 2 1 2 1 Z " fill="#02ADFC" transform="translate(555,392)"/>
<path d="" fill="#1291ED" transform="translate(0,0)"/>
<path d="" fill="#19D1D6" transform="translate(0,0)"/>
<path d="" fill="#0BECF2" transform="translate(0,0)"/>
<path d="" fill="#0EE3EC" transform="translate(0,0)"/>
<path d="" fill="#10E5F0" transform="translate(0,0)"/>
<path d="" fill="#0FE8F0" transform="translate(0,0)"/>
<path d="" fill="#0DEBF6" transform="translate(0,0)"/>
<path d="" fill="#08EEF7" transform="translate(0,0)"/>
<path d="" fill="#08E4F2" transform="translate(0,0)"/>
<path d="" fill="#0AE4F4" transform="translate(0,0)"/>
<path d="" fill="#0AE3F5" transform="translate(0,0)"/>
<path d="" fill="#09E6F6" transform="translate(0,0)"/>
<path d="" fill="#06ECFB" transform="translate(0,0)"/>
<path d="" fill="#08DDF0" transform="translate(0,0)"/>
<path d="" fill="#01EFFC" transform="translate(0,0)"/>
<path d="" fill="#06EEFA" transform="translate(0,0)"/>
<path d="" fill="#04EDF9" transform="translate(0,0)"/>
<path d="" fill="#0CD6F2" transform="translate(0,0)"/>
<path d="" fill="#06F3FC" transform="translate(0,0)"/>
<path d="" fill="#05EDF9" transform="translate(0,0)"/>
<path d="" fill="#04ECFA" transform="translate(0,0)"/>
<path d="" fill="#09D6F3" transform="translate(0,0)"/>
<path d="" fill="#04F3FA" transform="translate(0,0)"/>
<path d="" fill="#09D7F2" transform="translate(0,0)"/>
<path d="" fill="#02EFFD" transform="translate(0,0)"/>
<path d="" fill="#07E9FB" transform="translate(0,0)"/>
<path d="" fill="#0BC5F0" transform="translate(0,0)"/>
<path d="" fill="#03F5FC" transform="translate(0,0)"/>
<path d="" fill="#0EC2EE" transform="translate(0,0)"/>
<path d="" fill="#06EAF3" transform="translate(0,0)"/>
<path d="" fill="#04EFFE" transform="translate(0,0)"/>
<path d="" fill="#01E6FA" transform="translate(0,0)"/>
<path d="" fill="#0EBBEB" transform="translate(0,0)"/>
<path d="" fill="#0AEBF3" transform="translate(0,0)"/>
<path d="" fill="#01E5FB" transform="translate(0,0)"/>
<path d="" fill="#11B9EF" transform="translate(0,0)"/>
<path d="" fill="#00E7F7" transform="translate(0,0)"/>
<path d="" fill="#00EAFF" transform="translate(0,0)"/>
<path d="" fill="#00E5FD" transform="translate(0,0)"/>
<path d="" fill="#0CB8EC" transform="translate(0,0)"/>
<path d="" fill="#01E3FB" transform="translate(0,0)"/>
<path d="" fill="#03F1FB" transform="translate(0,0)"/>
<path d="" fill="#02D7FB" transform="translate(0,0)"/>
<path d="" fill="#04D4FA" transform="translate(0,0)"/>
<path d="" fill="#03EEFC" transform="translate(0,0)"/>
<path d="" fill="#08E6FA" transform="translate(0,0)"/>
<path d="" fill="#01D0FA" transform="translate(0,0)"/>
<path d="" fill="#14A4EE" transform="translate(0,0)"/>
<path d="" fill="#01C8FA" transform="translate(0,0)"/>
<path d="" fill="#00EEFC" transform="translate(0,0)"/>
<path d="" fill="#02C5FB" transform="translate(0,0)"/>
<path d="" fill="#00D7F9" transform="translate(0,0)"/>
<path d="" fill="#09D6F5" transform="translate(0,0)"/>
<path d="" fill="#00E8FF" transform="translate(0,0)"/>
<path d="" fill="#03D3FD" transform="translate(0,0)"/>
<path d="" fill="#00D6FF" transform="translate(0,0)"/>
<path d="" fill="#02E1FC" transform="translate(0,0)"/>
<path d="" fill="#00C1F9" transform="translate(0,0)"/>
<path d="" fill="#02CDFB" transform="translate(0,0)"/>
<path d="" fill="#02D3FB" transform="translate(0,0)"/>
<path d="" fill="#0F9AEA" transform="translate(0,0)"/>
<path d="" fill="#00CEF9" transform="translate(0,0)"/>
<path d="" fill="#03D4FD" transform="translate(0,0)"/>
<path d="" fill="#01B8FA" transform="translate(0,0)"/>
<path d="" fill="#00D8FF" transform="translate(0,0)"/>
<path d="" fill="#02B4F8" transform="translate(0,0)"/>
<path d="" fill="#00BAFD" transform="translate(0,0)"/>
<path d="" fill="#09B6F8" transform="translate(0,0)"/>
<path d="" fill="#0C9FF0" transform="translate(0,0)"/>
<path d="" fill="#0E9AF2" transform="translate(0,0)"/>
<path d="" fill="#0F98EE" transform="translate(0,0)"/>
<path d="" fill="#01C5FA" transform="translate(0,0)"/>
<path d="" fill="#03B4FE" transform="translate(0,0)"/>
<path d="" fill="#00B6FD" transform="translate(0,0)"/>
<path d="" fill="#00C9FC" transform="translate(0,0)"/>
<path d="" fill="#00B8FB" transform="translate(0,0)"/>
<path d="" fill="#00CAFF" transform="translate(0,0)"/>
<path d="" fill="#0CC8F7" transform="translate(0,0)"/>
<path d="" fill="#0BC8F8" transform="translate(0,0)"/>
<path d="" fill="#01AFF9" transform="translate(0,0)"/>
<path d="" fill="#0CC6F4" transform="translate(0,0)"/>
<path d="" fill="#00B5FC" transform="translate(0,0)"/>
<path d="" fill="#00C9FA" transform="translate(0,0)"/>
<path d="" fill="#02AEF8" transform="translate(0,0)"/>
<path d="" fill="#02B2FA" transform="translate(0,0)"/>
<path d="" fill="#05C2FF" transform="translate(0,0)"/>
<path d="" fill="#02BAFD" transform="translate(0,0)"/>
<path d="" fill="#0C96F4" transform="translate(0,0)"/>
<path d="" fill="#04BCFE" transform="translate(0,0)"/>
<path d="" fill="#0EB6F4" transform="translate(0,0)"/>
<path d="" fill="#00AEFD" transform="translate(0,0)"/>
<path d="" fill="#0E97F3" transform="translate(0,0)"/>
<path d="" fill="#03ABFD" transform="translate(0,0)"/>
<path d="" fill="#01AAFE" transform="translate(0,0)"/>
<path d="" fill="#0E94F0" transform="translate(0,0)"/>
<path d="" fill="#1098F4" transform="translate(0,0)"/>
<path d="" fill="#05A8FC" transform="translate(0,0)"/>
<path d="" fill="#03A9FD" transform="translate(0,0)"/>
<path d="" fill="#11A9F3" transform="translate(0,0)"/>
<path d="" fill="#10A8F2" transform="translate(0,0)"/>
<path d="" fill="#10A9F3" transform="translate(0,0)"/>
<path d="" fill="#05A3FB" transform="translate(0,0)"/>
<path d="" fill="#0AA6FB" transform="translate(0,0)"/>
<path d="" fill="#0E93F0" transform="translate(0,0)"/>
<path d="" fill="#0D98F2" transform="translate(0,0)"/>
<path d="" fill="#0D94F3" transform="translate(0,0)"/>
<path d="" fill="#0BA2FE" transform="translate(0,0)"/>
<path d="" fill="#0F92F3" transform="translate(0,0)"/>
<path d="" fill="#0F95F0" transform="translate(0,0)"/>
<path d="" fill="#1194F2" transform="translate(0,0)"/>
<path d="" fill="#0E92F5" transform="translate(0,0)"/>
<path d="" fill="#1295F1" transform="translate(0,0)"/>
<path d="" fill="#1090F1" transform="translate(0,0)"/>
<path d="" fill="#0F93F1" transform="translate(0,0)"/>
<path d="" fill="#0D92F1" transform="translate(0,0)"/>
<path d="" fill="#1290EC" transform="translate(0,0)"/>
<path d="" fill="#118EE9" transform="translate(0,0)"/>
<path d="" fill="#1787DA" transform="translate(0,0)"/>
</svg>
